<svg xmlns="http://www.w3.org/2000/svg" xmlns:xlink="http://www.w3.org/1999/xlink" width="1440" zoomAndPan="magnify" viewBox="0 0 1080 1079.999946" height="1440" preserveAspectRatio="xMidYMid meet" version="1.0"><path fill="#012169" d="M 1080.035156 540.027344 C 1080.035156 576.519531 1076.414062 612.160156 1069.515625 646.617188 C 1066.050781 663.910156 1061.769531 680.902344 1056.699219 697.542969 C 1054.21875 705.683594 1051.550781 713.742188 1048.707031 721.71875 C 1047.527344 725.015625 1046.316406 728.296875 1045.082031 731.566406 C 1035.734375 756.214844 1024.632812 779.992188 1011.921875 802.757812 C 988.242188 845.210938 958.996094 884.136719 925.175781 918.542969 C 868.617188 976.082031 799.257812 1021.003906 721.722656 1048.695312 C 697.441406 1057.363281 672.359375 1064.355469 646.625 1069.507812 C 612.167969 1076.410156 576.527344 1080.027344 540.035156 1080.027344 C 503.542969 1080.027344 467.902344 1076.410156 433.445312 1069.507812 C 407.695312 1064.355469 382.613281 1057.371094 358.339844 1048.695312 C 280.804688 1021.003906 211.449219 976.074219 154.894531 918.539062 C 146.492188 909.992188 138.371094 901.167969 130.554688 892.082031 C 113.496094 872.257812 97.839844 851.167969 83.769531 828.992188 C 62.542969 795.546875 44.898438 759.609375 31.363281 721.71875 C 28.515625 713.742188 25.847656 705.683594 23.367188 697.542969 C 18.292969 680.894531 14.011719 663.910156 10.546875 646.617188 C 3.648438 612.160156 0.0273438 576.519531 0.0273438 540.027344 C 0.0273438 503.535156 3.648438 467.894531 10.546875 433.4375 C 14.011719 416.148438 18.300781 399.15625 23.367188 382.507812 C 25.847656 374.367188 28.515625 366.3125 31.363281 358.339844 C 32.539062 355.035156 33.753906 351.753906 34.988281 348.484375 C 44.335938 323.835938 55.445312 300.058594 68.148438 277.292969 C 91.824219 234.847656 121.074219 195.925781 154.894531 161.519531 C 211.445312 103.980469 280.800781 59.054688 358.339844 31.363281 C 382.621094 22.691406 407.703125 15.699219 433.445312 10.546875 C 467.347656 3.761719 502.410156 0.148438 538.292969 0.0351562 C 538.871094 0.0273438 539.460938 0.0273438 540.035156 0.0273438 C 540.621094 0.0273438 541.199219 0.0273438 541.78125 0.0351562 C 577.660156 0.148438 612.714844 3.761719 646.625 10.546875 C 672.367188 15.699219 697.449219 22.6875 721.722656 31.363281 C 799.257812 59.054688 868.613281 103.976562 925.175781 161.511719 C 933.570312 170.058594 941.6875 178.882812 949.511719 187.976562 C 966.570312 207.796875 982.226562 228.886719 996.296875 251.066406 C 1017.523438 284.507812 1035.167969 320.449219 1048.707031 358.339844 C 1051.550781 366.304688 1054.21875 374.367188 1056.699219 382.507812 C 1061.769531 399.160156 1066.058594 416.148438 1069.515625 433.4375 C 1076.414062 467.894531 1080.035156 503.535156 1080.035156 540.027344 Z M 1080.035156 540.027344 " fill-opacity="1" fill-rule="nonzero"/><path fill="#ffffff" d="M 1056.695312 382.507812 L 971.007812 433.4375 L 791.6875 540.027344 L 757.257812 560.492188 L 747.605469 566.230469 L 721.722656 581.621094 L 690.457031 600.203125 L 680.804688 605.945312 L 680.800781 605.945312 L 650.9375 623.703125 L 646.628906 626.261719 L 641.273438 629.445312 L 612.371094 646.625 L 584.125 663.414062 L 574.472656 669.152344 L 540.046875 689.621094 L 486.03125 721.722656 L 433.453125 752.976562 L 358.351562 797.621094 L 154.90625 918.550781 C 146.503906 910.003906 138.382812 901.179688 130.566406 892.09375 C 113.507812 872.269531 97.851562 851.179688 83.78125 829 C 62.554688 795.558594 44.910156 759.621094 31.375 721.730469 C 28.527344 713.75 25.859375 705.695312 23.378906 697.554688 L 109.058594 646.628906 L 288.371094 540.027344 L 322.792969 519.558594 L 322.800781 519.558594 L 332.449219 513.820312 L 358.328125 498.433594 L 389.597656 479.847656 L 399.25 474.105469 L 399.257812 474.105469 L 429.128906 456.347656 L 433.433594 453.789062 L 438.78125 450.609375 L 467.679688 433.433594 L 495.941406 416.632812 L 505.597656 410.886719 L 540.023438 390.433594 L 594.035156 358.328125 L 646.613281 327.074219 L 721.710938 282.433594 L 925.164062 161.5 C 933.558594 170.046875 941.675781 178.871094 949.5 187.964844 C 966.558594 207.785156 982.214844 228.875 996.285156 251.054688 C 1017.511719 284.496094 1035.160156 320.4375 1048.695312 358.328125 C 1051.546875 366.304688 1054.214844 374.367188 1056.695312 382.507812 Z M 1056.695312 382.507812 " fill-opacity="1" fill-rule="nonzero"/><path fill="#c8102e" d="M 996.292969 251.066406 L 815.820312 358.339844 L 689.46875 433.4375 L 650.921875 456.355469 L 616.496094 476.820312 L 602.226562 485.296875 L 545.066406 519.269531 L 540.027344 522.269531 L 510.15625 540.027344 L 495.890625 548.507812 L 433.691406 585.480469 L 399.261719 605.941406 L 330.828125 646.617188 L 316.558594 655.097656 L 204.488281 721.71875 L 51.554688 721.71875 L 177.902344 646.617188 L 322.800781 560.492188 L 353.289062 542.367188 L 357.222656 540.027344 L 357.226562 540.027344 L 371.496094 531.550781 L 428.589844 497.609375 L 433.691406 494.578125 L 463.566406 476.824219 L 534.992188 434.375 L 540.039062 431.375 L 574.460938 410.910156 L 646.625 368.019531 L 677.175781 349.859375 L 716.683594 326.378906 L 721.722656 323.386719 L 949.511719 187.980469 C 966.566406 207.796875 982.222656 228.882812 996.292969 251.066406 Z M 996.292969 251.066406 " fill-opacity="1" fill-rule="nonzero"/><path fill="#c8102e" d="M 1028.496094 358.339844 L 902.144531 433.4375 L 757.25 519.558594 L 752.640625 522.304688 L 726.761719 537.695312 L 722.828125 540.027344 L 651.703125 582.308594 L 651.410156 582.480469 L 646.371094 585.472656 L 616.496094 603.230469 L 540.027344 648.683594 L 505.605469 669.148438 L 433.4375 712.042969 L 358.332031 756.6875 L 130.550781 892.082031 C 113.492188 872.257812 97.835938 851.167969 83.765625 828.992188 L 264.234375 721.71875 L 390.582031 646.617188 L 404.847656 638.140625 L 428.390625 624.136719 L 429.136719 623.695312 L 433.757812 620.949219 L 463.558594 603.230469 L 480.164062 593.359375 L 480.167969 593.359375 L 540.023438 557.773438 L 569.902344 540.015625 L 641.425781 497.496094 L 641.628906 497.386719 L 646.371094 494.566406 L 680.789062 474.101562 L 749.21875 433.425781 L 875.5625 358.328125 L 1028.496094 358.328125 Z M 1028.496094 358.339844 " fill-opacity="1" fill-rule="nonzero"/><path fill="#ffffff" d="M 1056.695312 697.542969 C 1054.214844 705.683594 1051.546875 713.742188 1048.699219 721.71875 C 1047.523438 725.015625 1046.308594 728.296875 1045.074219 731.566406 C 1035.726562 756.214844 1024.628906 779.992188 1011.914062 802.757812 C 988.238281 845.210938 958.988281 884.136719 925.167969 918.542969 L 721.71875 797.613281 L 646.617188 752.96875 L 594.042969 721.710938 L 540.027344 689.613281 L 505.605469 669.140625 L 495.949219 663.402344 L 467.691406 646.613281 L 438.792969 629.433594 L 433.4375 626.25 L 429.136719 623.691406 L 399.261719 605.9375 L 389.605469 600.199219 L 358.332031 581.605469 L 332.457031 566.21875 L 322.800781 560.480469 L 288.375 540.015625 L 109.054688 433.425781 L 23.367188 382.496094 C 25.847656 374.355469 28.515625 366.300781 31.363281 358.328125 C 32.539062 355.023438 33.753906 351.742188 34.988281 348.472656 C 44.335938 323.824219 55.445312 300.046875 68.148438 277.28125 C 91.824219 234.835938 121.074219 195.914062 154.894531 161.507812 L 358.339844 282.433594 L 433.445312 327.078125 L 486.015625 358.320312 L 540.035156 390.429688 L 574.460938 410.894531 L 584.113281 416.632812 L 612.363281 433.433594 L 641.261719 450.609375 L 646.617188 453.789062 L 650.921875 456.347656 L 680.792969 474.109375 L 690.445312 479.847656 L 721.71875 498.433594 L 747.601562 513.820312 L 757.25 519.558594 L 791.679688 540.027344 L 971.003906 646.617188 Z M 1056.695312 697.542969 " fill-opacity="1" fill-rule="nonzero"/><path fill="#c8102e" d="M 1045.074219 731.566406 C 1035.726562 756.214844 1024.628906 779.992188 1011.914062 802.757812 L 875.570312 721.71875 L 749.222656 646.617188 L 685.398438 608.683594 L 680.792969 605.9375 L 680.789062 605.9375 L 646.363281 585.472656 L 584.164062 548.507812 L 569.894531 540.015625 L 540.027344 522.269531 L 534.984375 519.269531 L 463.558594 476.820312 L 433.746094 459.101562 L 429.136719 456.355469 L 428.390625 455.914062 L 390.582031 433.4375 L 278.5 366.8125 L 264.242188 358.339844 L 358.339844 358.339844 L 358.339844 323.363281 L 433.441406 368.007812 L 505.609375 410.898438 L 529.25 424.953125 L 540.039062 431.367188 L 545.078125 434.367188 L 616.503906 476.820312 L 646.382812 494.578125 L 651.710938 497.742188 L 722.832031 540.027344 L 726.761719 542.363281 L 757.257812 560.488281 L 887.886719 638.128906 L 902.167969 646.617188 L 1028.511719 721.71875 Z M 1045.074219 731.566406 " fill-opacity="1" fill-rule="nonzero"/><path fill="#c8102e" d="M 815.828125 721.71875 L 721.71875 721.71875 L 721.71875 756.683594 L 716.675781 753.6875 L 646.617188 712.039062 L 579.074219 671.886719 L 574.460938 669.140625 L 540.035156 648.675781 L 534.992188 645.6875 L 479.992188 612.992188 L 477.832031 611.703125 L 463.566406 603.226562 L 433.703125 585.472656 L 428.578125 582.429688 L 428.371094 582.304688 L 357.238281 540.015625 L 357.234375 540.015625 L 322.816406 519.550781 L 322.808594 519.550781 L 177.917969 433.433594 L 65.835938 366.804688 L 51.578125 358.332031 L 35 348.476562 C 44.34375 323.832031 55.457031 300.050781 68.160156 277.285156 L 204.515625 358.332031 L 316.582031 424.945312 L 330.859375 433.4375 L 363.390625 452.773438 L 394.667969 471.367188 L 399.273438 474.113281 L 399.277344 474.113281 L 433.703125 494.566406 L 438.445312 497.390625 L 438.742188 497.570312 L 510.171875 540.027344 L 540.035156 557.78125 L 545.078125 560.78125 L 602.238281 594.753906 L 616.507812 603.230469 L 646.320312 620.957031 L 650.9375 623.695312 L 651.671875 624.128906 L 675.222656 638.140625 L 689.492188 646.617188 Z M 815.828125 721.71875 " fill-opacity="1" fill-rule="nonzero"/><path fill="#ffffff" d="M 1080.035156 540.027344 C 1080.035156 576.519531 1076.414062 612.160156 1069.515625 646.617188 C 1066.050781 663.910156 1061.769531 680.902344 1056.699219 697.542969 C 1054.21875 705.683594 1051.550781 713.742188 1048.707031 721.71875 L 721.722656 721.71875 L 721.722656 1048.699219 C 697.441406 1057.371094 672.359375 1064.359375 646.625 1069.515625 C 612.167969 1076.414062 576.527344 1080.035156 540.035156 1080.035156 C 503.542969 1080.035156 467.902344 1076.414062 433.445312 1069.515625 C 407.695312 1064.359375 382.613281 1057.375 358.339844 1048.699219 L 358.339844 721.71875 L 31.355469 721.71875 C 28.507812 713.742188 25.84375 705.683594 23.363281 697.542969 C 18.289062 680.894531 14.003906 663.910156 10.542969 646.617188 C 3.640625 612.160156 0.0234375 576.519531 0.0234375 540.027344 C 0.0234375 503.535156 3.640625 467.894531 10.542969 433.4375 C 14.003906 416.148438 18.292969 399.15625 23.363281 382.507812 C 25.84375 374.367188 28.507812 366.308594 31.355469 358.339844 L 358.332031 358.339844 L 358.332031 31.355469 C 382.613281 22.6875 407.695312 15.695312 433.4375 10.542969 C 467.34375 3.753906 502.402344 0.140625 538.285156 0.0273438 C 538.867188 0.0234375 539.453125 0.0234375 540.027344 0.0234375 C 540.613281 0.0234375 541.195312 0.0234375 541.777344 0.0273438 C 577.652344 0.140625 612.707031 3.753906 646.617188 10.542969 C 672.359375 15.695312 697.441406 22.679688 721.71875 31.355469 L 721.71875 358.339844 L 1048.699219 358.339844 C 1051.546875 366.304688 1054.214844 374.367188 1056.695312 382.507812 C 1061.761719 399.160156 1066.050781 416.148438 1069.507812 433.4375 C 1076.414062 467.894531 1080.035156 503.535156 1080.035156 540.027344 Z M 1080.035156 540.027344 " fill-opacity="1" fill-rule="nonzero"/><path fill="#c8102e" d="M 1080.035156 540.027344 C 1080.035156 576.519531 1076.414062 612.160156 1069.515625 646.617188 L 646.617188 646.617188 L 646.617188 1069.515625 C 612.160156 1076.414062 576.519531 1080.035156 540.027344 1080.035156 C 503.535156 1080.035156 467.894531 1076.414062 433.4375 1069.515625 L 433.4375 646.617188 L 10.542969 646.617188 C 3.640625 612.160156 0.0234375 576.519531 0.0234375 540.027344 C 0.0234375 503.535156 3.640625 467.894531 10.542969 433.4375 L 433.4375 433.4375 L 433.4375 10.542969 C 467.34375 3.753906 502.402344 0.140625 538.285156 0.0273438 L 541.78125 0.0273438 C 577.660156 0.140625 612.714844 3.753906 646.625 10.542969 L 646.625 433.4375 L 1069.519531 433.4375 C 1076.414062 467.894531 1080.035156 503.535156 1080.035156 540.027344 Z M 1080.035156 540.027344 " fill-opacity="1" fill-rule="nonzero"/></svg>