<svg xmlns="http://www.w3.org/2000/svg" xmlns:xlink="http://www.w3.org/1999/xlink" width="1440" zoomAndPan="magnify" viewBox="0 0 1080 1079.999946" height="1440" preserveAspectRatio="xMidYMid meet" version="1.0"><defs><clipPath id="f319b8eb10"><path d="M 51.867188 51.867188 L 1028 51.867188 L 1028 1028 L 51.867188 1028 Z M 51.867188 51.867188 " clip-rule="nonzero"/></clipPath></defs><g clip-path="url(#f319b8eb10)"><path fill="#ffffff" d="M 337.707031 55.222656 C 285.792969 57.660156 250.335938 65.984375 219.34375 78.125 C 187.246094 90.632812 160.070312 107.371094 133.03125 134.546875 C 105.945312 161.722656 89.296875 188.949219 76.929688 221.089844 C 64.925781 252.175781 56.789062 287.628906 54.488281 339.59375 C 52.1875 391.601562 51.683594 408.203125 51.914062 540.730469 C 52.144531 673.210938 52.742188 689.859375 55.222656 741.914062 C 57.707031 793.828125 65.984375 829.238281 78.125 860.277344 C 90.632812 892.375 107.371094 919.503906 134.546875 946.589844 C 161.726562 973.675781 188.949219 990.277344 221.089844 1002.691406 C 252.128906 1014.695312 287.628906 1022.878906 339.546875 1025.132812 C 391.601562 1027.429688 408.203125 1027.9375 540.683594 1027.660156 C 673.210938 1027.429688 689.8125 1026.832031 741.867188 1024.351562 C 793.785156 1021.867188 829.191406 1013.542969 860.230469 1001.449219 C 892.328125 988.894531 919.503906 972.203125 946.542969 945.027344 C 973.582031 917.851562 990.230469 890.628906 1002.644531 858.484375 C 1014.648438 827.445312 1022.832031 791.945312 1025.085938 740.074219 C 1027.339844 688.019531 1027.890625 671.371094 1027.660156 538.890625 C 1027.429688 406.410156 1026.789062 389.808594 1024.351562 337.753906 C 1021.867188 285.792969 1013.589844 250.382812 1001.449219 219.34375 C 988.894531 187.246094 972.203125 160.113281 945.027344 133.03125 C 917.851562 105.992188 890.628906 89.296875 858.484375 76.929688 C 827.445312 64.925781 791.945312 56.742188 740.027344 54.488281 C 687.972656 52.1875 671.328125 51.683594 538.84375 51.914062 C 406.363281 52.144531 389.761719 52.742188 337.707031 55.222656 M 343.410156 937.253906 C 295.863281 935.1875 270.019531 927.277344 252.773438 920.65625 C 229.964844 911.824219 213.734375 901.25 196.582031 884.28125 C 179.476562 867.222656 168.898438 850.988281 159.976562 828.273438 C 153.308594 811.074219 145.261719 785.277344 143.007812 737.683594 C 140.570312 686.269531 140.019531 670.820312 139.789062 540.546875 C 139.558594 410.316406 140.019531 394.867188 142.273438 343.410156 C 144.296875 295.863281 152.25 270.019531 158.875 252.820312 C 167.703125 230.011719 178.234375 213.777344 195.246094 196.625 C 212.308594 179.519531 228.539062 168.945312 251.300781 160.023438 C 268.5 153.308594 294.296875 145.308594 341.847656 143.054688 C 393.304688 140.617188 408.707031 140.113281 538.984375 139.835938 C 669.257812 139.558594 684.707031 140.019531 736.164062 142.320312 C 783.710938 144.386719 809.554688 152.25 826.753906 158.917969 C 849.5625 167.75 865.839844 178.234375 882.949219 195.292969 C 900.054688 212.355469 910.675781 228.539062 919.550781 251.347656 C 926.265625 268.5 934.265625 294.34375 936.519531 341.847656 C 938.957031 393.304688 939.507812 408.753906 939.738281 538.984375 C 939.96875 669.257812 939.507812 684.707031 937.253906 736.117188 C 935.1875 783.667969 927.277344 809.554688 920.65625 826.753906 C 911.824219 849.515625 901.296875 865.796875 884.234375 882.902344 C 867.175781 899.960938 850.988281 910.585938 828.179688 919.503906 C 811.027344 926.21875 785.183594 934.21875 737.683594 936.472656 C 686.226562 938.910156 670.820312 939.460938 540.5 939.691406 C 410.273438 939.921875 394.820312 939.460938 343.363281 937.210938 M 741.175781 278.984375 C 741.222656 311.3125 767.527344 337.476562 799.808594 337.386719 C 832.132812 337.339844 858.300781 311.082031 858.253906 278.753906 C 858.207031 246.429688 831.90625 220.261719 799.578125 220.308594 C 767.25 220.355469 741.085938 246.65625 741.132812 278.9375 M 289.238281 540.269531 C 289.515625 678.636719 401.902344 790.566406 540.222656 790.289062 C 678.59375 790.011719 790.566406 677.671875 790.289062 539.304688 C 790.011719 400.984375 677.625 289.011719 539.257812 289.238281 C 400.9375 289.515625 288.964844 401.902344 289.238281 540.269531 M 377.117188 540.085938 C 376.980469 450.277344 449.632812 377.300781 539.441406 377.164062 C 629.25 376.980469 702.226562 449.632812 702.410156 539.488281 C 702.597656 629.296875 629.894531 702.273438 540.085938 702.410156 C 450.277344 702.597656 377.300781 629.894531 377.164062 540.085938 " fill-opacity="1" fill-rule="nonzero"/></g></svg>