<svg xmlns="http://www.w3.org/2000/svg" xmlns:xlink="http://www.w3.org/1999/xlink" width="1440" zoomAndPan="magnify" viewBox="0 0 1080 1079.999946" height="1440" preserveAspectRatio="xMidYMid meet" version="1.0"><defs><clipPath id="648e9ea3ae"><path d="M 53.574219 53.574219 L 1026.324219 53.574219 L 1026.324219 1026.324219 L 53.574219 1026.324219 Z M 53.574219 53.574219 " clip-rule="nonzero"/></clipPath></defs><g clip-path="url(#648e9ea3ae)"><path fill="#ff3131" d="M 338.414062 56.917969 C 286.679688 59.347656 251.351562 67.640625 220.464844 79.738281 C 188.480469 92.203125 161.398438 108.882812 134.453125 135.964844 C 107.460938 163.046875 90.875 190.175781 78.546875 222.207031 C 66.585938 253.183594 58.476562 288.511719 56.183594 340.292969 C 53.894531 392.121094 53.390625 408.664062 53.621094 540.726562 C 53.847656 672.746094 54.445312 689.335938 56.917969 741.207031 C 59.394531 792.945312 67.640625 828.226562 79.738281 859.160156 C 92.203125 891.144531 108.882812 918.179688 135.964844 945.171875 C 163.046875 972.160156 190.175781 988.703125 222.207031 1001.078125 C 253.136719 1013.035156 288.511719 1021.191406 340.25 1023.4375 C 392.121094 1025.730469 408.664062 1026.234375 540.683594 1025.957031 C 672.746094 1025.730469 689.289062 1025.132812 741.164062 1022.660156 C 792.898438 1020.183594 828.183594 1011.890625 859.113281 999.839844 C 891.097656 987.328125 918.179688 970.695312 945.125 943.613281 C 972.070312 916.53125 988.660156 889.402344 1001.03125 857.371094 C 1012.992188 826.441406 1021.148438 791.066406 1023.394531 739.375 C 1025.636719 687.503906 1026.1875 670.914062 1025.957031 538.894531 C 1025.730469 406.875 1025.089844 390.335938 1022.660156 338.460938 C 1020.183594 286.679688 1011.9375 251.394531 999.839844 220.464844 C 987.328125 188.480469 970.695312 161.441406 943.613281 134.453125 C 916.53125 107.507812 889.402344 90.875 857.371094 78.546875 C 826.441406 66.585938 791.066406 58.429688 739.328125 56.183594 C 687.457031 53.894531 670.867188 53.390625 538.851562 53.621094 C 406.832031 53.847656 390.289062 54.445312 338.414062 56.917969 M 344.097656 935.867188 C 296.714844 933.808594 270.960938 925.925781 253.777344 919.328125 C 231.050781 910.527344 214.875 899.988281 197.78125 883.078125 C 180.734375 866.078125 170.195312 849.902344 161.304688 827.265625 C 154.660156 810.128906 146.640625 784.421875 144.398438 736.992188 C 141.96875 685.761719 141.417969 670.363281 141.1875 540.546875 C 140.960938 410.773438 141.417969 395.375 143.664062 344.097656 C 145.679688 296.714844 153.605469 270.960938 160.207031 253.824219 C 169.003906 231.09375 179.496094 214.917969 196.453125 197.828125 C 213.453125 180.78125 229.628906 170.242188 252.3125 161.351562 C 269.449219 154.660156 295.15625 146.6875 342.539062 144.441406 C 393.816406 142.015625 409.167969 141.507812 538.988281 141.234375 C 668.808594 140.960938 684.203125 141.417969 735.480469 143.710938 C 782.863281 145.769531 808.617188 153.605469 825.753906 160.25 C 848.484375 169.050781 864.703125 179.496094 881.75 196.5 C 898.796875 213.5 909.382812 229.628906 918.226562 252.359375 C 924.917969 269.449219 932.890625 295.203125 935.136719 342.539062 C 937.566406 393.816406 938.113281 409.214844 938.34375 538.988281 C 938.574219 668.804688 938.113281 684.203125 935.867188 735.433594 C 933.808594 782.816406 925.925781 808.617188 919.328125 825.753906 C 910.527344 848.4375 900.035156 864.660156 883.035156 881.703125 C 866.035156 898.707031 849.902344 909.292969 827.175781 918.179688 C 810.082031 924.871094 784.328125 932.84375 736.992188 935.089844 C 685.714844 937.519531 670.363281 938.070312 540.5 938.296875 C 410.726562 938.527344 395.328125 938.070312 344.050781 935.824219 M 740.476562 279.898438 C 740.519531 312.113281 766.734375 338.1875 798.902344 338.09375 C 831.113281 338.050781 857.1875 311.882812 857.144531 279.667969 C 857.097656 247.453125 830.886719 221.382812 798.671875 221.425781 C 766.457031 221.472656 740.382812 247.683594 740.429688 279.851562 M 290.117188 540.269531 C 290.390625 678.15625 402.386719 789.691406 540.222656 789.414062 C 678.109375 789.140625 789.691406 677.191406 789.414062 539.308594 C 789.140625 401.46875 677.148438 289.886719 539.261719 290.117188 C 401.421875 290.390625 289.84375 402.386719 290.117188 540.269531 M 377.6875 540.085938 C 377.550781 450.59375 449.949219 377.871094 539.445312 377.734375 C 628.941406 377.550781 701.664062 449.949219 701.847656 539.492188 C 702.027344 628.984375 629.582031 701.707031 540.085938 701.84375 C 450.59375 702.027344 377.871094 629.582031 377.734375 540.085938 " fill-opacity="1" fill-rule="nonzero"/></g></svg>