<svg xmlns="http://www.w3.org/2000/svg" xmlns:xlink="http://www.w3.org/1999/xlink" width="1440" zoomAndPan="magnify" viewBox="0 0 1080 1079.999946" height="1440" preserveAspectRatio="xMidYMid meet" version="1.0"><defs><clipPath id="f03a1a0761"><path d="M 69.78125 69.78125 L 1010 69.78125 L 1010 1010 L 69.78125 1010 Z M 69.78125 69.78125 " clip-rule="nonzero"/></clipPath></defs><g clip-path="url(#f03a1a0761)"><path fill="#000000" d="M 345.152344 73.015625 C 295.140625 75.363281 260.984375 83.382812 231.125 95.078125 C 200.203125 107.128906 174.019531 123.253906 147.972656 149.433594 C 121.878906 175.617188 105.84375 201.839844 93.925781 232.808594 C 82.363281 262.753906 74.523438 296.910156 72.308594 346.96875 C 70.09375 397.074219 69.605469 413.066406 69.828125 540.742188 C 70.046875 668.371094 70.625 684.40625 73.015625 734.554688 C 75.40625 784.570312 83.382812 818.683594 95.078125 848.585938 C 107.128906 879.507812 123.253906 905.644531 149.433594 931.738281 C 175.617188 957.828125 201.84375 973.824219 232.808594 985.785156 C 262.710938 997.347656 296.910156 1005.230469 346.925781 1007.402344 C 397.074219 1009.617188 413.066406 1010.105469 540.695312 1009.839844 C 668.371094 1009.617188 684.363281 1009.042969 734.511719 1006.648438 C 784.527344 1004.257812 818.636719 996.238281 848.539062 984.585938 C 879.460938 972.492188 905.644531 956.414062 931.691406 930.230469 C 957.742188 904.050781 973.777344 877.824219 985.738281 846.855469 C 997.300781 816.953125 1005.1875 782.753906 1007.359375 732.785156 C 1009.527344 682.636719 1010.058594 666.597656 1009.839844 538.96875 C 1009.617188 411.339844 1008.996094 395.347656 1006.648438 345.199219 C 1004.257812 295.140625 996.28125 261.027344 984.585938 231.125 C 972.492188 200.203125 956.414062 174.066406 930.230469 147.972656 C 904.050781 121.921875 877.824219 105.84375 846.855469 93.925781 C 816.953125 82.363281 782.753906 74.476562 732.738281 72.308594 C 682.589844 70.09375 666.554688 69.605469 538.925781 69.828125 C 411.292969 70.046875 395.300781 70.625 345.152344 73.015625 M 350.648438 922.742188 C 304.839844 920.75 279.945312 913.128906 263.332031 906.75 C 241.359375 898.246094 225.71875 888.058594 209.195312 871.710938 C 192.714844 855.273438 182.527344 839.636719 173.933594 817.75 C 167.507812 801.183594 159.757812 776.332031 157.585938 730.480469 C 155.238281 680.953125 154.707031 666.066406 154.484375 540.5625 C 154.261719 415.105469 154.707031 400.21875 156.875 350.648438 C 158.824219 304.839844 166.488281 279.945312 172.871094 263.375 C 181.375 241.402344 191.519531 225.765625 207.910156 209.238281 C 224.347656 192.761719 239.984375 182.570312 261.914062 173.976562 C 278.480469 167.507812 303.335938 159.800781 349.140625 157.628906 C 398.714844 155.28125 413.554688 154.792969 539.058594 154.527344 C 664.5625 154.261719 679.445312 154.707031 729.019531 156.921875 C 774.824219 158.914062 799.722656 166.488281 816.289062 172.914062 C 838.261719 181.417969 853.945312 191.519531 870.425781 207.957031 C 886.90625 224.390625 897.136719 239.984375 905.6875 261.957031 C 912.15625 278.480469 919.863281 303.378906 922.035156 349.140625 C 924.382812 398.714844 924.914062 413.597656 925.136719 539.058594 C 925.359375 664.5625 924.914062 679.445312 922.746094 728.972656 C 920.75 774.78125 913.132812 799.722656 906.75 816.289062 C 898.246094 838.21875 888.101562 853.902344 871.664062 870.382812 C 855.230469 886.816406 839.636719 897.050781 817.664062 905.644531 C 801.140625 912.113281 776.242188 919.820312 730.480469 921.992188 C 680.90625 924.339844 666.066406 924.871094 540.519531 925.09375 C 415.058594 925.3125 400.175781 924.871094 350.601562 922.699219 M 733.847656 288.582031 C 733.890625 319.726562 759.230469 344.933594 790.328125 344.84375 C 821.472656 344.800781 846.679688 319.503906 846.636719 288.359375 C 846.589844 257.21875 821.25 232.011719 790.109375 232.054688 C 758.964844 232.097656 733.757812 257.4375 733.800781 288.539062 M 298.460938 540.296875 C 298.726562 673.597656 406.996094 781.425781 540.253906 781.160156 C 673.554688 780.894531 781.425781 672.667969 781.160156 539.367188 C 780.894531 406.113281 672.625 298.238281 539.324219 298.460938 C 406.066406 298.726562 298.195312 406.996094 298.460938 540.296875 M 383.121094 540.121094 C 382.988281 453.601562 452.980469 383.296875 539.5 383.164062 C 626.019531 382.988281 696.324219 452.980469 696.5 539.542969 C 696.679688 626.0625 626.640625 696.367188 540.121094 696.5 C 453.601562 696.679688 383.296875 626.640625 383.164062 540.121094 " fill-opacity="1" fill-rule="nonzero"/></g></svg>