<svg xmlns="http://www.w3.org/2000/svg" xmlns:xlink="http://www.w3.org/1999/xlink" width="1440" zoomAndPan="magnify" viewBox="0 0 1080 1079.999946" height="1440" preserveAspectRatio="xMidYMid meet" version="1.0"><defs><clipPath id="f13b82cfa5"><path d="M 56.558594 128 L 874 128 L 874 946 L 56.558594 946 Z M 56.558594 128 " clip-rule="nonzero"/></clipPath><clipPath id="8f83d71a96"><path d="M 911 840 L 1023.308594 840 L 1023.308594 952 L 911 952 Z M 911 840 " clip-rule="nonzero"/></clipPath></defs><path fill="#ff3131" d="M 975.691406 899.273438 C 984.054688 899.351562 990.914062 892.644531 990.988281 884.28125 C 990.988281 883.9375 990.988281 883.589844 990.988281 883.242188 C 990.988281 871.875 984.128906 866.480469 970.101562 866.480469 L 947.40625 866.480469 L 947.40625 925.902344 L 955.960938 925.902344 L 955.960938 900.003906 L 966.441406 900.003906 L 966.671875 900.3125 L 982.972656 925.902344 L 992.105469 925.902344 L 974.574219 899.425781 L 975.730469 899.273438 Z M 965.824219 893.300781 L 955.921875 893.300781 L 955.921875 873.222656 L 968.484375 873.222656 C 974.957031 873.222656 982.355469 874.300781 982.355469 882.78125 C 982.355469 892.527344 974.882812 893.339844 965.785156 893.339844 " fill-opacity="1" fill-rule="nonzero"/><g clip-path="url(#f13b82cfa5)"><path fill="#ff3131" d="M 752.910156 824.78125 L 631.828125 824.78125 L 631.828125 635.144531 C 631.828125 589.941406 631.019531 531.710938 568.863281 531.710938 C 506.703125 531.710938 496.144531 581 496.144531 631.867188 L 496.144531 824.78125 L 375.0625 824.78125 L 375.0625 434.792969 L 491.324219 434.792969 L 491.324219 488.089844 L 492.945312 488.089844 C 516.644531 447.550781 560.730469 423.347656 607.628906 425.082031 C 730.367188 425.082031 752.988281 505.816406 752.988281 610.828125 L 752.988281 824.78125 Z M 238.371094 381.496094 C 199.566406 381.496094 168.082031 350.050781 168.082031 311.246094 C 168.082031 272.441406 199.527344 240.957031 238.335938 240.957031 C 277.140625 240.957031 308.625 272.402344 308.625 311.207031 C 308.625 350.011719 277.179688 381.496094 238.371094 381.496094 M 298.953125 824.78125 L 177.714844 824.78125 L 177.714844 434.792969 L 298.953125 434.792969 Z M 813.296875 128.46875 L 116.867188 128.46875 C 83.957031 128.121094 56.945312 154.480469 56.558594 187.390625 L 56.558594 886.710938 C 56.945312 919.660156 83.917969 946.019531 116.867188 945.671875 L 813.296875 945.671875 C 846.285156 946.09375 873.375 919.699219 873.839844 886.710938 L 873.839844 187.351562 C 873.375 154.363281 846.285156 128.003906 813.296875 128.429688 " fill-opacity="1" fill-rule="nonzero"/></g><g clip-path="url(#8f83d71a96)"><path fill="#ff3131" d="M 966.828125 840.003906 C 936.035156 840.3125 911.335938 865.476562 911.644531 896.265625 C 911.953125 927.058594 937.117188 951.757812 967.90625 951.453125 C 998.695312 951.144531 1023.398438 925.980469 1023.089844 895.1875 C 1022.78125 864.820312 998.273438 840.273438 967.90625 840.003906 L 966.828125 840.003906 M 966.828125 945.09375 C 939.851562 945.554688 917.617188 924.011719 917.152344 897.039062 C 916.691406 870.0625 938.234375 847.828125 965.207031 847.363281 C 992.183594 846.902344 1014.417969 868.445312 1014.882812 895.417969 L 1014.882812 896.230469 C 1015.460938 922.625 994.496094 944.476562 968.097656 945.054688 L 966.828125 945.054688 " fill-opacity="1" fill-rule="nonzero"/></g></svg>