<svg xmlns="http://www.w3.org/2000/svg" xmlns:xlink="http://www.w3.org/1999/xlink" width="1440" zoomAndPan="magnify" viewBox="0 0 1080 1079.999946" height="1440" preserveAspectRatio="xMidYMid meet" version="1.0"><defs><clipPath id="82f6937a74"><path d="M 49.488281 40 L 1042 40 L 1042 1033 L 49.488281 1033 Z M 49.488281 40 " clip-rule="nonzero"/></clipPath></defs><g clip-path="url(#82f6937a74)"><path fill="#ff3131" d="M 894.765625 885.683594 L 747.789062 885.683594 L 747.789062 655.492188 C 747.789062 600.621094 746.804688 529.9375 671.351562 529.9375 C 595.902344 529.9375 583.082031 589.765625 583.082031 651.515625 L 583.082031 885.683594 L 436.105469 885.683594 L 436.105469 412.292969 L 577.234375 412.292969 L 577.234375 476.984375 L 579.199219 476.984375 C 607.96875 427.777344 661.484375 398.398438 718.410156 400.503906 C 867.398438 400.503906 894.859375 498.503906 894.859375 625.972656 L 894.859375 885.683594 Z M 270.1875 347.597656 C 223.082031 347.597656 184.863281 309.429688 184.863281 262.324219 C 184.863281 215.21875 223.035156 177 270.140625 177 C 317.246094 177 355.460938 215.171875 355.460938 262.277344 C 355.460938 309.382812 317.292969 347.597656 270.1875 347.597656 M 343.722656 885.683594 L 196.558594 885.683594 L 196.558594 412.292969 L 343.722656 412.292969 Z M 968.066406 40.457031 L 122.695312 40.457031 C 82.746094 40.035156 49.957031 72.03125 49.488281 111.980469 L 49.488281 960.855469 C 49.957031 1000.851562 82.699219 1032.847656 122.695312 1032.425781 L 968.066406 1032.425781 C 1008.105469 1032.941406 1040.992188 1000.898438 1041.554688 960.855469 L 1041.554688 111.933594 C 1040.992188 71.890625 1008.105469 39.894531 968.066406 40.410156 " fill-opacity="1" fill-rule="nonzero"/></g></svg>