<svg xmlns="http://www.w3.org/2000/svg" xmlns:xlink="http://www.w3.org/1999/xlink" width="1440" zoomAndPan="magnify" viewBox="0 0 1080 1079.999946" height="1440" preserveAspectRatio="xMidYMid meet" version="1.0"><defs><clipPath id="6397eb00c9"><path d="M 54.769531 46 L 1036 46 L 1036 1027 L 54.769531 1027 Z M 54.769531 46 " clip-rule="nonzero"/></clipPath></defs><g clip-path="url(#6397eb00c9)"><path fill="#000000" d="M 890.28125 881.691406 L 745 881.691406 L 745 654.160156 C 745 599.921875 744.03125 530.058594 669.449219 530.058594 C 594.867188 530.058594 582.199219 589.195312 582.199219 650.226562 L 582.199219 881.691406 L 436.921875 881.691406 L 436.921875 413.769531 L 576.421875 413.769531 L 576.421875 477.714844 L 578.363281 477.714844 C 606.796875 429.074219 659.695312 400.039062 715.964844 402.117188 C 863.230469 402.117188 890.371094 498.984375 890.371094 624.984375 L 890.371094 881.691406 Z M 272.917969 349.824219 C 226.355469 349.824219 188.582031 312.09375 188.582031 265.53125 C 188.582031 218.972656 226.308594 181.195312 272.871094 181.195312 C 319.433594 181.195312 357.207031 218.925781 357.207031 265.488281 C 357.207031 312.046875 319.476562 349.824219 272.917969 349.824219 M 345.601562 881.691406 L 200.140625 881.691406 L 200.140625 413.769531 L 345.601562 413.769531 Z M 962.734375 46.226562 L 127.128906 46.226562 C 87.644531 45.8125 55.230469 77.4375 54.769531 116.925781 L 54.769531 955.996094 C 55.230469 995.53125 87.597656 1027.15625 127.128906 1026.738281 L 962.734375 1026.738281 C 1002.3125 1027.25 1034.816406 995.574219 1035.371094 955.996094 L 1035.371094 116.878906 C 1034.816406 77.300781 1002.3125 45.671875 962.734375 46.183594 " fill-opacity="1" fill-rule="nonzero"/></g></svg>