<svg xmlns="http://www.w3.org/2000/svg" xmlns:xlink="http://www.w3.org/1999/xlink" width="1440" zoomAndPan="magnify" viewBox="0 0 1080 1079.999946" height="1440" preserveAspectRatio="xMidYMid meet" version="1.0"><defs><clipPath id="0704fee9c9"><path d="M 51.964844 44 L 1037 44 L 1037 1029 L 51.964844 1029 Z M 51.964844 44 " clip-rule="nonzero"/></clipPath></defs><g clip-path="url(#0704fee9c9)"><path fill="#ffffff" d="M 890.917969 883.101562 L 745.042969 883.101562 L 745.042969 654.628906 C 745.042969 600.171875 744.066406 530.015625 669.179688 530.015625 C 594.289062 530.015625 581.570312 589.398438 581.570312 650.683594 L 581.570312 883.101562 L 435.691406 883.101562 L 435.691406 413.25 L 575.765625 413.25 L 575.765625 477.460938 L 577.714844 477.460938 C 606.269531 428.617188 659.382812 399.460938 715.886719 401.550781 C 863.757812 401.550781 891.011719 498.816406 891.011719 625.335938 L 891.011719 883.101562 Z M 271.011719 349.039062 C 224.257812 349.039062 186.328125 311.15625 186.328125 264.402344 C 186.328125 217.648438 224.210938 179.71875 270.964844 179.71875 C 317.71875 179.71875 355.648438 217.601562 355.648438 264.355469 C 355.648438 311.109375 317.765625 349.039062 271.011719 349.039062 M 343.996094 883.101562 L 197.933594 883.101562 L 197.933594 413.25 L 343.996094 413.25 Z M 963.671875 44.195312 L 124.625 44.195312 C 84.976562 43.777344 52.429688 75.535156 51.964844 115.183594 L 51.964844 957.710938 C 52.429688 997.40625 84.929688 1029.164062 124.625 1028.746094 L 963.671875 1028.746094 C 1003.414062 1029.257812 1036.050781 997.453125 1036.609375 957.710938 L 1036.609375 115.136719 C 1036.054688 75.394531 1003.414062 43.636719 963.671875 44.148438 " fill-opacity="1" fill-rule="nonzero"/></g></svg>