<svg xmlns="http://www.w3.org/2000/svg" xmlns:xlink="http://www.w3.org/1999/xlink" width="1440" zoomAndPan="magnify" viewBox="0 0 1080 1079.999946" height="1440" preserveAspectRatio="xMidYMid meet" version="1.0"><defs><clipPath id="7dfb2c4402"><path d="M 75.082031 73 L 1005 73 L 1005 1007.785156 L 75.082031 1007.785156 Z M 75.082031 73 " clip-rule="nonzero"/></clipPath></defs><g clip-path="url(#7dfb2c4402)"><path fill="#ff3131" d="M 869.335938 208.757812 C 781.945312 121.273438 665.726562 73.003906 541.890625 73.003906 C 286.730469 73.003906 79.054688 280.632812 78.964844 535.882812 C 78.964844 617.457031 100.257812 697.136719 140.765625 767.300781 L 75.082031 1007.171875 L 320.496094 942.78125 C 388.121094 979.6875 464.242188 999.085938 541.703125 999.132812 L 541.890625 999.132812 C 797.003906 999.132812 1004.722656 791.457031 1004.769531 536.253906 C 1004.769531 412.554688 956.730469 296.292969 869.289062 208.757812 Z M 541.890625 920.976562 L 541.75 920.976562 C 472.742188 920.976562 404.980469 902.410156 345.902344 867.351562 L 331.859375 858.988281 L 186.21875 897.1875 L 225.066406 755.199219 L 215.917969 740.648438 C 177.398438 679.398438 157.074219 608.589844 157.117188 535.882812 C 157.210938 323.773438 329.828125 151.160156 542.027344 151.160156 C 644.804688 151.160156 741.386719 191.253906 814.046875 264.003906 C 886.703125 336.707031 926.660156 433.386719 926.613281 536.207031 C 926.523438 748.363281 753.90625 920.976562 541.84375 920.976562 Z M 752.9375 632.839844 C 741.386719 627.066406 684.527344 599.074219 673.902344 595.238281 C 663.277344 591.359375 655.613281 589.464844 647.898438 601.011719 C 640.183594 612.605469 618.011719 638.660156 611.269531 646.371094 C 604.523438 654.085938 597.78125 655.054688 586.1875 649.234375 C 574.640625 643.460938 537.363281 631.222656 493.15625 591.820312 C 458.792969 561.148438 435.558594 523.273438 428.8125 511.679688 C 422.070312 500.085938 428.121094 493.851562 433.894531 488.074219 C 439.066406 482.902344 445.441406 474.542969 451.261719 467.796875 C 457.035156 461.054688 458.976562 456.203125 462.808594 448.492188 C 466.691406 440.777344 464.75 434.03125 461.839844 428.210938 C 458.929688 422.4375 435.835938 365.484375 426.179688 342.34375 C 416.804688 319.800781 407.242188 322.851562 400.175781 322.480469 C 393.433594 322.15625 385.71875 322.066406 378.003906 322.066406 C 370.289062 322.066406 357.773438 324.929688 347.148438 336.523438 C 336.523438 348.117188 306.683594 376.109375 306.683594 433.015625 C 306.683594 489.921875 348.117188 544.9375 353.9375 552.695312 C 359.710938 560.410156 435.511719 677.226562 551.542969 727.34375 C 579.121094 739.261719 600.691406 746.375 617.503906 751.734375 C 645.21875 760.554688 670.4375 759.308594 690.347656 756.308594 C 712.566406 752.980469 758.757812 728.316406 768.410156 701.292969 C 778.0625 674.273438 778.0625 651.128906 775.152344 646.28125 C 772.242188 641.429688 764.53125 638.566406 752.980469 632.746094 Z M 752.9375 632.839844 " fill-opacity="1" fill-rule="evenodd"/></g></svg>