<svg xmlns="http://www.w3.org/2000/svg" xmlns:xlink="http://www.w3.org/1999/xlink" width="1440" zoomAndPan="magnify" viewBox="0 0 1080 1079.999946" height="1440" preserveAspectRatio="xMidYMid meet" version="1.0"><path fill="#bd0000" d="M 891.132812 189.0625 C 885.398438 183.269531 879.527344 177.617188 873.515625 172.113281 C 867.503906 166.605469 861.359375 161.25 855.082031 156.046875 C 848.808594 150.84375 842.40625 145.796875 835.882812 140.910156 C 829.359375 136.023438 822.71875 131.296875 815.960938 126.738281 C 809.203125 122.175781 802.335938 117.785156 795.363281 113.5625 C 788.390625 109.339844 781.316406 105.289062 774.144531 101.417969 C 766.972656 97.542969 759.707031 93.847656 752.351562 90.332031 C 744.996094 86.8125 737.558594 83.480469 730.039062 80.332031 C 722.523438 77.179688 714.929688 74.21875 707.265625 71.441406 C 699.597656 68.667969 691.871094 66.082031 684.078125 63.6875 C 676.285156 61.289062 668.4375 59.089844 660.535156 57.078125 C 652.636719 55.070312 644.691406 53.257812 636.699219 51.640625 C 628.710938 50.023438 620.683594 48.605469 612.625 47.382812 C 604.5625 46.160156 596.476562 45.136719 588.367188 44.316406 C 580.257812 43.492188 572.128906 42.867188 563.988281 42.445312 C 555.847656 42.023438 547.699219 41.800781 539.546875 41.777344 C 531.394531 41.753906 523.25 41.933594 515.105469 42.3125 C 506.960938 42.695312 498.832031 43.273438 490.71875 44.054688 C 482.601562 44.832031 474.511719 45.8125 466.445312 46.992188 C 458.378906 48.171875 450.34375 49.546875 442.347656 51.121094 C 434.347656 52.695312 426.390625 54.464844 418.480469 56.433594 C 410.570312 58.398438 402.710938 60.558594 394.90625 62.914062 C 387.097656 65.265625 379.355469 67.808594 371.675781 70.542969 C 363.996094 73.28125 356.390625 76.203125 348.851562 79.3125 C 341.316406 82.421875 333.863281 85.714844 326.488281 89.191406 C 319.113281 92.667969 311.832031 96.324219 304.636719 100.160156 C 297.445312 103.996094 290.347656 108.007812 283.351562 112.191406 C 276.355469 116.378906 269.46875 120.734375 262.6875 125.257812 C 255.90625 129.78125 249.238281 134.472656 242.6875 139.324219 C 236.136719 144.175781 229.710938 149.1875 223.40625 154.359375 C 217.105469 159.527344 210.933594 164.851562 204.890625 170.324219 C 198.847656 175.796875 192.945312 181.417969 187.179688 187.179688 C 181.417969 192.945312 175.796875 198.847656 170.324219 204.890625 C 164.851562 210.933594 159.527344 217.105469 154.359375 223.40625 C 149.1875 229.710938 144.175781 236.136719 139.324219 242.6875 C 134.472656 249.238281 129.78125 255.90625 125.257812 262.6875 C 120.734375 269.46875 116.378906 276.355469 112.191406 283.351562 C 108.007812 290.347656 103.996094 297.445312 100.160156 304.636719 C 96.324219 311.832031 92.667969 319.113281 89.191406 326.488281 C 85.714844 333.863281 82.421875 341.316406 79.3125 348.851562 C 76.203125 356.390625 73.28125 363.996094 70.542969 371.675781 C 67.808594 379.355469 65.265625 387.097656 62.914062 394.90625 C 60.558594 402.710938 58.398438 410.570312 56.433594 418.480469 C 54.464844 426.390625 52.695312 434.347656 51.121094 442.347656 C 49.546875 450.34375 48.171875 458.378906 46.992188 466.445312 C 45.8125 474.511719 44.832031 482.601562 44.054688 490.71875 C 43.273438 498.832031 42.695312 506.960938 42.3125 515.105469 C 41.933594 523.25 41.753906 531.394531 41.777344 539.546875 C 41.800781 547.699219 42.023438 555.847656 42.445312 563.988281 C 42.867188 572.128906 43.492188 580.257812 44.316406 588.367188 C 45.136719 596.476562 46.160156 604.5625 47.382812 612.625 C 48.605469 620.683594 50.023438 628.710938 51.640625 636.699219 C 53.257812 644.691406 55.070312 652.636719 57.078125 660.535156 C 59.089844 668.4375 61.289062 676.285156 63.6875 684.078125 C 66.082031 691.871094 68.667969 699.597656 71.441406 707.265625 C 74.21875 714.929688 77.179688 722.523438 80.332031 730.039062 C 83.480469 737.558594 86.8125 744.996094 90.332031 752.351562 C 93.847656 759.707031 97.542969 766.972656 101.417969 774.144531 C 105.289062 781.316406 109.339844 788.390625 113.5625 795.363281 C 117.785156 802.335938 122.175781 809.203125 126.738281 815.960938 C 131.296875 822.71875 136.023438 829.359375 140.910156 835.882812 C 145.796875 842.40625 150.84375 848.808594 156.046875 855.082031 C 161.25 861.359375 166.605469 867.503906 172.113281 873.515625 C 177.617188 879.527344 183.269531 885.398438 189.0625 891.132812 C 194.796875 896.929688 200.671875 902.578125 206.683594 908.085938 C 212.695312 913.589844 218.839844 918.945312 225.113281 924.148438 C 231.390625 929.351562 237.789062 934.398438 244.316406 939.285156 C 250.839844 944.175781 257.480469 948.898438 264.238281 953.460938 C 270.996094 958.019531 277.859375 962.414062 284.832031 966.636719 C 291.808594 970.859375 298.878906 974.90625 306.054688 978.78125 C 313.226562 982.65625 320.488281 986.351562 327.84375 989.867188 C 335.199219 993.382812 342.636719 996.714844 350.15625 999.867188 C 357.675781 1003.015625 365.269531 1005.980469 372.933594 1008.753906 C 380.597656 1011.53125 388.328125 1014.117188 396.121094 1016.511719 C 403.914062 1018.90625 411.757812 1021.109375 419.660156 1023.117188 C 427.5625 1025.125 435.507812 1026.9375 443.496094 1028.554688 C 451.488281 1030.171875 459.511719 1031.59375 467.574219 1032.816406 C 475.632812 1034.035156 483.71875 1035.058594 491.828125 1035.882812 C 499.941406 1036.707031 508.066406 1037.328125 516.207031 1037.753906 C 524.347656 1038.175781 532.496094 1038.398438 540.648438 1038.417969 C 548.800781 1038.441406 556.949219 1038.261719 565.09375 1037.882812 C 573.234375 1037.503906 581.363281 1036.921875 589.480469 1036.144531 C 597.59375 1035.363281 605.6875 1034.382812 613.753906 1033.207031 C 621.820312 1032.027344 629.851562 1030.648438 637.851562 1029.074219 C 645.851562 1027.5 653.804688 1025.730469 661.71875 1023.765625 C 669.628906 1021.796875 677.488281 1019.636719 685.292969 1017.285156 C 693.097656 1014.929688 700.839844 1012.386719 708.519531 1009.652344 C 716.199219 1006.917969 723.808594 1003.996094 731.34375 1000.886719 C 738.878906 997.777344 746.335938 994.480469 753.707031 991.003906 C 761.082031 987.527344 768.367188 983.871094 775.558594 980.035156 C 782.753906 976.199219 789.847656 972.191406 796.84375 968.003906 C 803.839844 963.820312 810.730469 959.464844 817.511719 954.941406 C 824.292969 950.414062 830.957031 945.726562 837.507812 940.871094 C 844.058594 936.019531 850.484375 931.007812 856.789062 925.839844 C 863.09375 920.667969 869.265625 915.347656 875.308594 909.875 C 881.347656 904.398438 887.25 898.78125 893.015625 893.015625 C 898.78125 887.25 904.398438 881.347656 909.875 875.308594 C 915.347656 869.265625 920.667969 863.09375 925.839844 856.789062 C 931.007812 850.484375 936.019531 844.058594 940.871094 837.507812 C 945.726562 830.957031 950.414062 824.292969 954.941406 817.511719 C 959.464844 810.730469 963.820312 803.839844 968.003906 796.84375 C 972.191406 789.847656 976.199219 782.753906 980.035156 775.558594 C 983.871094 768.367188 987.527344 761.082031 991.003906 753.707031 C 994.484375 746.335938 997.777344 738.878906 1000.886719 731.34375 C 1003.996094 723.808594 1006.917969 716.199219 1009.652344 708.519531 C 1012.386719 700.839844 1014.929688 693.097656 1017.285156 685.292969 C 1019.636719 677.488281 1021.796875 669.628906 1023.765625 661.71875 C 1025.730469 653.804688 1027.5 645.851562 1029.074219 637.851562 C 1030.648438 629.851562 1032.027344 621.820312 1033.207031 613.753906 C 1034.382812 605.6875 1035.363281 597.59375 1036.144531 589.480469 C 1036.921875 581.363281 1037.503906 573.234375 1037.882812 565.09375 C 1038.261719 556.949219 1038.441406 548.800781 1038.417969 540.648438 C 1038.398438 532.496094 1038.175781 524.347656 1037.753906 516.207031 C 1037.328125 508.066406 1036.707031 499.941406 1035.882812 491.828125 C 1035.058594 483.71875 1034.035156 475.632812 1032.816406 467.574219 C 1031.59375 459.511719 1030.171875 451.488281 1028.554688 443.496094 C 1026.9375 435.507812 1025.125 427.5625 1023.117188 419.660156 C 1021.109375 411.757812 1018.90625 403.914062 1016.511719 396.121094 C 1014.117188 388.328125 1011.53125 380.597656 1008.753906 372.933594 C 1005.980469 365.269531 1003.015625 357.675781 999.867188 350.15625 C 996.714844 342.636719 993.382812 335.199219 989.867188 327.84375 C 986.351562 320.488281 982.65625 313.226562 978.78125 306.054688 C 974.90625 298.878906 970.859375 291.808594 966.636719 284.832031 C 962.414062 277.859375 958.019531 270.996094 953.460938 264.238281 C 948.898438 257.480469 944.175781 250.839844 939.285156 244.316406 C 934.398438 237.789062 929.351562 231.390625 924.148438 225.113281 C 918.945312 218.839844 913.589844 212.695312 908.085938 206.683594 C 902.578125 200.671875 896.929688 194.796875 891.132812 189.0625 Z M 211.703125 211.703125 C 218.667969 204.707031 225.851562 197.941406 233.25 191.40625 C 240.648438 184.867188 248.25 178.574219 256.050781 172.527344 C 263.855469 166.476562 271.84375 160.683594 280.015625 155.148438 C 288.191406 149.613281 296.53125 144.34375 305.042969 139.339844 C 313.554688 134.339844 322.21875 129.617188 331.035156 125.171875 C 339.847656 120.722656 348.796875 116.566406 357.878906 112.691406 C 366.960938 108.820312 376.15625 105.242188 385.464844 101.960938 C 394.777344 98.679688 404.183594 95.695312 413.683594 93.019531 C 384.199219 117.601562 357.15625 151.007812 333.652344 192.488281 C 318.445312 219.59375 305.609375 247.777344 295.140625 277.042969 C 259.824219 265.070312 226.238281 249.390625 194.386719 230 C 199.972656 223.773438 205.746094 217.675781 211.703125 211.703125 Z M 173.589844 254.761719 C 208.710938 276.605469 245.863281 294.140625 285.050781 307.371094 C 264.773438 373.570312 253.402344 447.355469 252 524.085938 L 75.984375 524.085938 C 76.363281 511.945312 77.222656 499.84375 78.5625 487.773438 C 79.898438 475.703125 81.714844 463.707031 84 451.777344 C 86.289062 439.851562 89.042969 428.035156 92.265625 416.328125 C 95.488281 404.621094 99.171875 393.054688 103.308594 381.640625 C 107.445312 370.222656 112.027344 358.988281 117.054688 347.933594 C 122.082031 336.878906 127.539062 326.039062 133.421875 315.417969 C 139.304688 304.792969 145.601562 294.417969 152.304688 284.296875 C 159.011719 274.171875 166.105469 264.324219 173.589844 254.761719 Z M 173.589844 825.433594 C 166.105469 815.871094 159.011719 806.027344 152.304688 795.902344 C 145.601562 785.777344 139.304688 775.402344 133.421875 764.78125 C 127.539062 754.160156 122.082031 743.320312 117.054688 732.265625 C 112.027344 721.210938 107.445312 709.976562 103.308594 698.558594 C 99.171875 687.140625 95.488281 675.578125 92.265625 663.871094 C 89.042969 652.160156 86.289062 640.34375 84 628.417969 C 81.714844 616.492188 79.898438 604.492188 78.5625 592.425781 C 77.222656 580.355469 76.363281 568.25 75.984375 556.113281 L 252 556.113281 C 253.402344 632.84375 264.773438 706.628906 285.050781 772.828125 C 245.863281 786.054688 208.710938 803.589844 173.589844 825.433594 Z M 211.703125 868.492188 C 205.738281 862.527344 199.96875 856.429688 194.386719 850.195312 C 226.238281 830.804688 259.824219 815.125 295.140625 803.15625 C 305.609375 832.417969 318.445312 860.605469 333.652344 887.710938 C 357.15625 929.1875 384.199219 962.597656 413.683594 987.179688 C 404.183594 984.5 394.777344 981.519531 385.464844 978.238281 C 376.15625 974.953125 366.960938 971.378906 357.878906 967.503906 C 348.796875 963.632812 339.847656 959.472656 331.035156 955.027344 C 322.21875 950.582031 313.554688 945.859375 305.042969 940.855469 C 296.53125 935.855469 288.191406 930.585938 280.015625 925.046875 C 271.84375 919.511719 263.855469 913.71875 256.050781 907.671875 C 248.25 901.621094 240.648438 895.328125 233.25 888.792969 C 225.851562 882.257812 218.667969 875.488281 211.703125 868.492188 Z M 524.085938 1003.574219 C 463.308594 996.667969 406.078125 950.546875 361.519531 871.917969 C 347.402344 846.757812 335.457031 820.609375 325.6875 793.464844 C 386.460938 775.851562 454 765.800781 524.085938 764.460938 Z M 524.085938 732.429688 C 450.597656 733.792969 379.574219 744.421875 315.539062 763.140625 C 296.261719 700.082031 285.410156 629.597656 284.027344 556.113281 L 524.085938 556.113281 Z M 524.085938 524.085938 L 284.027344 524.085938 C 285.410156 450.597656 296.261719 380.113281 315.539062 317.058594 C 379.574219 335.777344 450.597656 346.40625 524.085938 347.765625 Z M 524.085938 315.738281 C 454 314.394531 386.460938 304.347656 325.6875 286.730469 C 335.457031 259.589844 347.402344 233.4375 361.519531 208.28125 C 406.078125 129.652344 463.308594 83.527344 524.085938 76.621094 Z M 906.605469 254.761719 C 914.089844 264.324219 921.1875 274.171875 927.890625 284.296875 C 934.597656 294.417969 940.890625 304.792969 946.777344 315.417969 C 952.660156 326.039062 958.117188 336.878906 963.140625 347.933594 C 968.167969 358.988281 972.75 370.222656 976.890625 381.640625 C 981.027344 393.054688 984.707031 404.621094 987.929688 416.328125 C 991.152344 428.035156 993.910156 439.851562 996.195312 451.777344 C 998.484375 463.707031 1000.296875 475.703125 1001.636719 487.773438 C 1002.972656 499.84375 1003.835938 511.945312 1004.214844 524.085938 L 828.195312 524.085938 C 826.796875 447.355469 815.425781 373.570312 795.148438 307.371094 C 834.332031 294.140625 871.488281 276.605469 906.605469 254.761719 Z M 868.492188 211.703125 C 874.457031 217.667969 880.230469 223.769531 885.808594 230 C 853.957031 249.390625 820.375 265.070312 785.058594 277.042969 C 774.589844 247.777344 761.75 219.59375 746.542969 192.488281 C 723.042969 151.007812 696 117.601562 666.511719 93.019531 C 676.015625 95.695312 685.421875 98.679688 694.730469 101.960938 C 704.042969 105.242188 713.238281 108.820312 722.320312 112.691406 C 731.402344 116.566406 740.347656 120.722656 749.164062 125.171875 C 757.976562 129.617188 766.640625 134.339844 775.152344 139.339844 C 783.664062 144.34375 792.007812 149.613281 800.179688 155.148438 C 808.355469 160.683594 816.34375 166.476562 824.144531 172.527344 C 831.949219 178.574219 839.546875 184.867188 846.949219 191.40625 C 854.347656 197.941406 861.527344 204.707031 868.492188 211.703125 Z M 556.113281 76.621094 C 616.886719 83.527344 674.117188 129.652344 718.679688 208.28125 C 732.796875 233.4375 744.742188 259.589844 754.511719 286.730469 C 693.738281 304.347656 626.195312 314.394531 556.113281 315.738281 Z M 556.113281 347.765625 C 629.597656 346.40625 700.621094 335.773438 764.660156 317.058594 C 783.9375 380.113281 794.785156 450.597656 796.167969 524.085938 L 556.113281 524.085938 Z M 556.113281 556.113281 L 796.167969 556.113281 C 794.789062 629.597656 783.9375 700.082031 764.660156 763.136719 C 700.621094 744.421875 629.597656 733.792969 556.113281 732.429688 Z M 556.113281 1003.574219 L 556.113281 764.460938 C 626.195312 765.800781 693.738281 775.851562 754.511719 793.464844 C 744.742188 820.609375 732.796875 846.757812 718.679688 871.917969 C 674.117188 950.546875 616.886719 996.667969 556.113281 1003.574219 Z M 868.492188 868.492188 C 861.527344 875.488281 854.347656 882.257812 846.949219 888.792969 C 839.546875 895.328125 831.949219 901.621094 824.144531 907.671875 C 816.34375 913.71875 808.355469 919.511719 800.179688 925.046875 C 792.007812 930.585938 783.664062 935.855469 775.152344 940.855469 C 766.640625 945.859375 757.976562 950.582031 749.164062 955.027344 C 740.347656 959.472656 731.402344 963.632812 722.320312 967.503906 C 713.238281 971.378906 704.042969 974.953125 694.730469 978.238281 C 685.421875 981.519531 676.015625 984.5 666.511719 987.179688 C 696 962.597656 723.042969 929.1875 746.542969 887.710938 C 761.75 860.605469 774.589844 832.417969 785.058594 803.15625 C 820.375 815.125 853.957031 830.804688 885.808594 850.195312 C 880.222656 856.421875 874.453125 862.519531 868.492188 868.492188 Z M 906.605469 825.433594 C 871.488281 803.589844 834.332031 786.054688 795.148438 772.828125 C 815.425781 706.628906 826.796875 632.839844 828.195312 556.113281 L 1004.214844 556.113281 C 1003.835938 568.25 1002.972656 580.355469 1001.636719 592.425781 C 1000.296875 604.492188 998.484375 616.492188 996.195312 628.417969 C 993.910156 640.34375 991.152344 652.160156 987.929688 663.871094 C 984.707031 675.578125 981.027344 687.140625 976.890625 698.558594 C 972.75 709.976562 968.167969 721.210938 963.140625 732.265625 C 958.117188 743.320312 952.660156 754.160156 946.777344 764.78125 C 940.890625 775.402344 934.597656 785.777344 927.890625 795.902344 C 921.1875 806.027344 914.089844 815.871094 906.605469 825.433594 Z M 906.605469 825.433594 " fill-opacity="1" fill-rule="nonzero"/></svg>