<svg xmlns="http://www.w3.org/2000/svg" xmlns:xlink="http://www.w3.org/1999/xlink" width="1440" zoomAndPan="magnify" viewBox="0 0 1080 1079.999946" height="1440" preserveAspectRatio="xMidYMid meet" version="1.0"><path fill="#ffffff" d="M 880.335938 199.847656 C 874.777344 194.230469 869.085938 188.753906 863.257812 183.417969 C 857.429688 178.082031 851.476562 172.890625 845.390625 167.847656 C 839.308594 162.804688 833.105469 157.914062 826.78125 153.175781 C 820.457031 148.4375 814.019531 143.859375 807.472656 139.4375 C 800.921875 135.015625 794.269531 130.761719 787.507812 126.667969 C 780.75 122.574219 773.894531 118.652344 766.941406 114.894531 C 759.988281 111.140625 752.949219 107.558594 745.820312 104.148438 C 738.691406 100.742188 731.480469 97.511719 724.195312 94.457031 C 716.90625 91.40625 709.546875 88.535156 702.117188 85.84375 C 694.6875 83.152344 687.195312 80.644531 679.644531 78.324219 C 672.089844 76.003906 664.484375 73.867188 656.828125 71.921875 C 649.167969 69.976562 641.46875 68.21875 633.722656 66.648438 C 625.976562 65.082031 618.199219 63.707031 610.386719 62.523438 C 602.574219 61.339844 594.738281 60.347656 586.875 59.550781 C 579.015625 58.75 571.136719 58.148438 563.246094 57.738281 C 555.355469 57.328125 547.460938 57.109375 539.558594 57.089844 C 531.65625 57.070312 523.757812 57.242188 515.867188 57.609375 C 507.972656 57.976562 500.09375 58.539062 492.226562 59.296875 C 484.363281 60.050781 476.519531 61 468.703125 62.144531 C 460.882812 63.285156 453.097656 64.621094 445.34375 66.148438 C 437.589844 67.671875 429.878906 69.386719 422.210938 71.292969 C 414.542969 73.199219 406.925781 75.292969 399.359375 77.574219 C 391.796875 79.855469 384.292969 82.320312 376.847656 84.972656 C 369.402344 87.625 362.03125 90.457031 354.726562 93.46875 C 347.421875 96.484375 340.195312 99.675781 333.046875 103.046875 C 325.902344 106.417969 318.839844 109.960938 311.867188 113.679688 C 304.894531 117.394531 298.019531 121.285156 291.238281 125.339844 C 284.457031 129.398438 277.78125 133.617188 271.207031 138.003906 C 264.636719 142.390625 258.171875 146.933594 251.824219 151.636719 C 245.476562 156.339844 239.246094 161.199219 233.136719 166.210938 C 227.027344 171.21875 221.042969 176.378906 215.1875 181.683594 C 209.332031 186.988281 203.609375 192.4375 198.023438 198.023438 C 192.4375 203.609375 186.988281 209.332031 181.683594 215.1875 C 176.378906 221.042969 171.21875 227.027344 166.210938 233.136719 C 161.199219 239.246094 156.339844 245.476562 151.636719 251.824219 C 146.933594 258.171875 142.390625 264.636719 138.003906 271.207031 C 133.617188 277.78125 129.398438 284.457031 125.339844 291.238281 C 121.285156 298.019531 117.394531 304.894531 113.679688 311.867188 C 109.960938 318.839844 106.417969 325.902344 103.046875 333.046875 C 99.675781 340.195312 96.484375 347.421875 93.46875 354.726562 C 90.457031 362.03125 87.625 369.402344 84.972656 376.847656 C 82.320312 384.292969 79.855469 391.796875 77.574219 399.359375 C 75.292969 406.925781 73.199219 414.542969 71.292969 422.210938 C 69.386719 429.878906 67.671875 437.589844 66.148438 445.34375 C 64.621094 453.097656 63.285156 460.882812 62.144531 468.703125 C 61 476.519531 60.050781 484.363281 59.296875 492.226562 C 58.539062 500.09375 57.976562 507.972656 57.609375 515.867188 C 57.242188 523.757812 57.070312 531.65625 57.089844 539.558594 C 57.109375 547.460938 57.328125 555.355469 57.738281 563.246094 C 58.148438 571.136719 58.75 579.015625 59.550781 586.875 C 60.347656 594.738281 61.339844 602.574219 62.523438 610.386719 C 63.707031 618.199219 65.082031 625.976562 66.652344 633.722656 C 68.21875 641.46875 69.976562 649.167969 71.921875 656.828125 C 73.867188 664.484375 76.003906 672.089844 78.324219 679.644531 C 80.644531 687.195312 83.152344 694.6875 85.84375 702.117188 C 88.535156 709.546875 91.40625 716.90625 94.457031 724.195312 C 97.511719 731.480469 100.742188 738.691406 104.148438 745.820312 C 107.558594 752.949219 111.140625 759.988281 114.894531 766.941406 C 118.652344 773.894531 122.574219 780.75 126.667969 787.507812 C 130.761719 794.269531 135.015625 800.921875 139.4375 807.472656 C 143.859375 814.019531 148.4375 820.457031 153.175781 826.78125 C 157.914062 833.105469 162.804688 839.308594 167.847656 845.390625 C 172.890625 851.476562 178.082031 857.429688 183.417969 863.257812 C 188.753906 869.085938 194.230469 874.777344 199.847656 880.335938 C 205.40625 885.953125 211.097656 891.429688 216.925781 896.765625 C 222.753906 902.101562 228.707031 907.292969 234.789062 912.335938 C 240.875 917.378906 247.078125 922.269531 253.402344 927.007812 C 259.722656 931.746094 266.160156 936.324219 272.710938 940.746094 C 279.261719 945.164062 285.914062 949.421875 292.671875 953.515625 C 299.433594 957.609375 306.289062 961.53125 313.242188 965.285156 C 320.191406 969.042969 327.234375 972.625 334.363281 976.03125 C 341.492188 979.441406 348.699219 982.671875 355.988281 985.722656 C 363.277344 988.777344 370.636719 991.648438 378.066406 994.339844 C 385.496094 997.03125 392.984375 999.535156 400.539062 1001.859375 C 408.089844 1004.179688 415.695312 1006.3125 423.355469 1008.261719 C 431.011719 1010.207031 438.714844 1011.964844 446.460938 1013.53125 C 454.203125 1015.097656 461.984375 1016.476562 469.796875 1017.660156 C 477.609375 1018.84375 485.445312 1019.835938 493.304688 1020.632812 C 501.167969 1021.429688 509.042969 1022.035156 516.933594 1022.445312 C 524.824219 1022.855469 532.722656 1023.070312 540.625 1023.09375 C 548.527344 1023.113281 556.421875 1022.941406 564.316406 1022.574219 C 572.210938 1022.203125 580.089844 1021.640625 587.953125 1020.886719 C 595.820312 1020.128906 603.660156 1019.179688 611.480469 1018.039062 C 619.300781 1016.894531 627.085938 1015.5625 634.839844 1014.035156 C 642.589844 1012.507812 650.300781 1010.792969 657.96875 1008.886719 C 665.640625 1006.980469 673.257812 1004.886719 680.820312 1002.605469 C 688.386719 1000.328125 695.890625 997.859375 703.335938 995.210938 C 710.777344 992.558594 718.152344 989.726562 725.457031 986.710938 C 732.761719 983.699219 739.988281 980.503906 747.132812 977.136719 C 754.28125 973.765625 761.339844 970.222656 768.3125 966.503906 C 775.285156 962.785156 782.164062 958.898438 788.945312 954.84375 C 795.722656 950.785156 802.402344 946.5625 808.972656 942.179688 C 815.546875 937.792969 822.007812 933.25 828.359375 928.542969 C 834.707031 923.839844 840.9375 918.984375 847.046875 913.972656 C 853.15625 908.960938 859.136719 903.804688 864.996094 898.5 C 870.851562 893.191406 876.570312 887.746094 882.160156 882.160156 C 887.746094 876.570312 893.191406 870.851562 898.5 864.996094 C 903.804688 859.136719 908.960938 853.15625 913.972656 847.046875 C 918.984375 840.9375 923.839844 834.707031 928.542969 828.359375 C 933.25 822.007812 937.792969 815.546875 942.179688 808.972656 C 946.5625 802.402344 950.785156 795.722656 954.84375 788.945312 C 958.898438 782.164062 962.785156 775.285156 966.503906 768.3125 C 970.222656 761.339844 973.765625 754.28125 977.136719 747.132812 C 980.507812 739.988281 983.699219 732.761719 986.710938 725.457031 C 989.726562 718.152344 992.558594 710.777344 995.210938 703.335938 C 997.859375 695.890625 1000.328125 688.386719 1002.609375 680.820312 C 1004.886719 673.257812 1006.980469 665.640625 1008.886719 657.96875 C 1010.792969 650.300781 1012.511719 642.589844 1014.035156 634.839844 C 1015.5625 627.085938 1016.894531 619.300781 1018.039062 611.480469 C 1019.179688 603.664062 1020.128906 595.820312 1020.886719 587.953125 C 1021.640625 580.089844 1022.203125 572.210938 1022.574219 564.316406 C 1022.941406 556.421875 1023.113281 548.527344 1023.09375 540.625 C 1023.070312 532.722656 1022.855469 524.824219 1022.445312 516.933594 C 1022.035156 509.042969 1021.429688 501.167969 1020.632812 493.304688 C 1019.835938 485.445312 1018.84375 477.609375 1017.660156 469.796875 C 1016.476562 461.984375 1015.097656 454.203125 1013.53125 446.460938 C 1011.964844 438.714844 1010.207031 431.011719 1008.261719 423.355469 C 1006.3125 415.695312 1004.179688 408.089844 1001.859375 400.539062 C 999.535156 392.984375 997.03125 385.496094 994.339844 378.066406 C 991.648438 370.636719 988.777344 363.277344 985.722656 355.988281 C 982.671875 348.699219 979.441406 341.492188 976.03125 334.363281 C 972.625 327.234375 969.042969 320.191406 965.285156 313.242188 C 961.53125 306.289062 957.609375 299.433594 953.515625 292.671875 C 949.421875 285.914062 945.164062 279.261719 940.746094 272.710938 C 936.324219 266.160156 931.746094 259.722656 927.007812 253.402344 C 922.269531 247.078125 917.378906 240.875 912.335938 234.789062 C 907.292969 228.707031 902.101562 222.753906 896.765625 216.925781 C 891.429688 211.097656 885.953125 205.40625 880.335938 199.847656 Z M 221.792969 221.792969 C 228.542969 215.011719 235.503906 208.453125 242.675781 202.117188 C 249.847656 195.78125 257.214844 189.683594 264.777344 183.820312 C 272.339844 177.957031 280.082031 172.34375 288.003906 166.976562 C 295.925781 161.609375 304.011719 156.503906 312.261719 151.65625 C 320.511719 146.804688 328.910156 142.226562 337.453125 137.917969 C 345.996094 133.609375 354.671875 129.578125 363.472656 125.824219 C 372.273438 122.070312 381.1875 118.605469 390.210938 115.421875 C 399.238281 112.242188 408.355469 109.351562 417.5625 106.753906 C 388.984375 130.582031 362.769531 162.964844 339.992188 203.164062 C 325.253906 229.4375 312.808594 256.757812 302.664062 285.121094 C 268.433594 273.519531 235.882812 258.320312 205.007812 239.527344 C 210.421875 233.492188 216.015625 227.582031 221.792969 221.792969 Z M 184.851562 263.527344 C 218.890625 284.699219 254.902344 301.695312 292.882812 314.515625 C 273.230469 378.679688 262.207031 450.199219 260.851562 524.570312 L 90.242188 524.570312 C 90.613281 512.804688 91.445312 501.074219 92.742188 489.375 C 94.039062 477.675781 95.796875 466.046875 98.015625 454.488281 C 100.234375 442.925781 102.902344 431.472656 106.027344 420.125 C 109.152344 408.777344 112.71875 397.570312 116.730469 386.503906 C 120.738281 375.4375 125.179688 364.546875 130.054688 353.832031 C 134.925781 343.117188 140.214844 332.613281 145.917969 322.316406 C 151.621094 312.019531 157.722656 301.964844 164.21875 292.152344 C 170.71875 282.339844 177.597656 272.796875 184.851562 263.527344 Z M 184.851562 816.65625 C 177.597656 807.386719 170.71875 797.84375 164.21875 788.03125 C 157.722656 778.21875 151.621094 768.164062 145.917969 757.867188 C 140.214844 747.570312 134.925781 737.066406 130.054688 726.351562 C 125.179688 715.636719 120.738281 704.746094 116.730469 693.679688 C 112.71875 682.613281 109.152344 671.40625 106.027344 660.058594 C 102.902344 648.710938 100.234375 637.253906 98.015625 625.695312 C 95.796875 614.136719 94.039062 602.507812 92.742188 590.808594 C 91.445312 579.109375 90.613281 567.378906 90.242188 555.613281 L 260.851562 555.613281 C 262.207031 629.984375 273.230469 701.5 292.882812 765.664062 C 254.902344 778.488281 218.890625 795.484375 184.851562 816.65625 Z M 221.792969 858.390625 C 216.011719 852.609375 210.417969 846.695312 205.007812 840.65625 C 235.882812 821.863281 268.433594 806.664062 302.664062 795.058594 C 312.808594 823.425781 325.253906 850.742188 339.992188 877.015625 C 362.769531 917.21875 388.984375 949.601562 417.5625 973.425781 C 408.355469 970.832031 399.238281 967.941406 390.210938 964.761719 C 381.1875 961.578125 372.273438 958.109375 363.472656 954.359375 C 354.671875 950.605469 345.996094 946.574219 337.453125 942.265625 C 328.910156 937.953125 320.511719 933.375 312.261719 928.527344 C 304.011719 923.679688 295.925781 918.574219 288.003906 913.207031 C 280.082031 907.839844 272.339844 902.226562 264.777344 896.363281 C 257.214844 890.5 249.847656 884.402344 242.675781 878.066406 C 235.503906 871.730469 228.542969 865.171875 221.792969 858.390625 Z M 524.570312 989.316406 C 465.664062 982.625 410.191406 937.921875 367 861.707031 C 353.316406 837.324219 341.738281 811.976562 332.269531 785.667969 C 391.175781 768.59375 456.640625 758.855469 524.570312 757.554688 Z M 524.570312 726.511719 C 453.34375 727.832031 384.503906 738.132812 322.433594 756.273438 C 303.75 695.15625 293.234375 626.839844 291.894531 555.613281 L 524.570312 555.613281 Z M 524.570312 524.570312 L 291.894531 524.570312 C 293.234375 453.34375 303.75 385.027344 322.433594 323.90625 C 384.503906 342.050781 453.34375 352.351562 524.570312 353.671875 Z M 524.570312 322.628906 C 456.640625 321.328125 391.175781 311.585938 332.269531 294.511719 C 341.738281 268.203125 353.316406 242.859375 367 218.472656 C 410.191406 142.261719 465.664062 97.558594 524.570312 90.863281 Z M 895.332031 263.527344 C 902.585938 272.796875 909.464844 282.339844 915.960938 292.152344 C 922.460938 301.964844 928.5625 312.019531 934.265625 322.316406 C 939.96875 332.613281 945.257812 343.117188 950.128906 353.832031 C 955 364.546875 959.441406 375.4375 963.453125 386.503906 C 967.464844 397.570312 971.03125 408.777344 974.15625 420.125 C 977.277344 431.472656 979.949219 442.925781 982.167969 454.488281 C 984.382812 466.046875 986.140625 477.675781 987.441406 489.375 C 988.738281 501.074219 989.570312 512.804688 989.9375 524.570312 L 819.332031 524.570312 C 817.972656 450.199219 806.953125 378.679688 787.300781 314.515625 C 825.28125 301.695312 861.292969 284.699219 895.332031 263.527344 Z M 858.390625 221.792969 C 864.171875 227.574219 869.765625 233.484375 875.171875 239.527344 C 844.300781 258.320312 811.75 273.519531 777.519531 285.121094 C 767.371094 256.757812 754.929688 229.4375 740.191406 203.164062 C 717.410156 162.964844 691.199219 130.582031 662.617188 106.753906 C 671.828125 109.351562 680.945312 112.242188 689.96875 115.421875 C 698.996094 118.605469 707.90625 122.070312 716.710938 125.824219 C 725.511719 129.578125 734.183594 133.609375 742.730469 137.917969 C 751.273438 142.226562 759.667969 146.804688 767.917969 151.65625 C 776.167969 156.503906 784.253906 161.609375 792.179688 166.976562 C 800.101562 172.34375 807.84375 177.957031 815.40625 183.820312 C 822.96875 189.683594 830.335938 195.78125 837.507812 202.117188 C 844.679688 208.453125 851.640625 215.011719 858.390625 221.792969 Z M 555.613281 90.863281 C 614.519531 97.558594 669.992188 142.261719 713.179688 218.472656 C 726.867188 242.859375 738.441406 268.203125 747.910156 294.511719 C 689.003906 311.585938 623.542969 321.328125 555.613281 322.628906 Z M 555.613281 353.671875 C 626.839844 352.351562 695.679688 342.050781 757.75 323.90625 C 776.433594 385.027344 786.949219 453.34375 788.289062 524.570312 L 555.613281 524.570312 Z M 555.613281 555.613281 L 788.289062 555.613281 C 786.949219 626.839844 776.433594 695.15625 757.75 756.273438 C 695.679688 738.132812 626.839844 727.832031 555.613281 726.511719 Z M 555.613281 989.316406 L 555.613281 757.554688 C 623.542969 758.855469 689.003906 768.59375 747.910156 785.667969 C 738.441406 811.976562 726.867188 837.324219 713.179688 861.707031 C 669.992188 937.921875 614.519531 982.625 555.613281 989.316406 Z M 858.390625 858.390625 C 851.640625 865.171875 844.679688 871.730469 837.507812 878.066406 C 830.335938 884.402344 822.96875 890.5 815.40625 896.363281 C 807.84375 902.226562 800.101562 907.839844 792.179688 913.207031 C 784.253906 918.574219 776.167969 923.679688 767.917969 928.527344 C 759.667969 933.375 751.273438 937.953125 742.730469 942.265625 C 734.183594 946.574219 725.511719 950.605469 716.710938 954.359375 C 707.90625 958.109375 698.996094 961.578125 689.96875 964.761719 C 680.945312 967.941406 671.828125 970.832031 662.617188 973.425781 C 691.199219 949.601562 717.410156 917.21875 740.191406 877.015625 C 754.929688 850.742188 767.371094 823.425781 777.519531 795.058594 C 811.75 806.664062 844.300781 821.863281 875.171875 840.65625 C 869.761719 846.691406 864.164062 852.601562 858.390625 858.390625 Z M 895.332031 816.65625 C 861.292969 795.484375 825.28125 778.488281 787.300781 765.664062 C 806.953125 701.5 817.972656 629.984375 819.332031 555.613281 L 989.9375 555.613281 C 989.570312 567.378906 988.738281 579.109375 987.441406 590.808594 C 986.140625 602.507812 984.382812 614.136719 982.167969 625.695312 C 979.949219 637.253906 977.277344 648.710938 974.15625 660.058594 C 971.03125 671.40625 967.464844 682.613281 963.453125 693.679688 C 959.441406 704.746094 955 715.636719 950.128906 726.351562 C 945.257812 737.066406 939.96875 747.570312 934.265625 757.867188 C 928.5625 768.164062 922.460938 778.21875 915.960938 788.03125 C 909.464844 797.84375 902.585938 807.386719 895.332031 816.65625 Z M 895.332031 816.65625 " fill-opacity="1" fill-rule="nonzero"/></svg>